<svg xmlns="http://www.w3.org/2000/svg" viewBox="0 0 1117.29 214.54"><defs><style>.cls-1,.cls-2,.cls-3{fill:#2d4975;}.cls-1,.cls-2{stroke:#2d4975;stroke-linejoin:bevel;stroke-width:54px;}.cls-2{stroke-linecap:round;opacity:0.75;}</style></defs><title>LightORM LOGO</title><g id="Layer_2" data-name="Layer 2"><g id="Layer_1-2" data-name="Layer 1"><polygon class="cls-1" points="10.91 70.48 107.73 110.08 202.52 70.48 107.73 28.97 10.91 70.48"/><polygon class="cls-2" points="10.98 134.54 106.86 177.23 202.59 134.54 106.86 94.38 10.98 134.54"/><path class="cls-3" d="M331.46,158.57v29.82h-103V34.16h34.72V158.57Z" transform="translate(0 -15.69)"/><path class="cls-3" d="M370,37.5q0,9.14-5.9,14.35a21.11,21.11,0,0,1-27.82,0q-5.89-5.22-5.9-14.35t5.9-14.35a21.11,21.11,0,0,1,27.82,0Q370,28.37,370,37.5Zm-3.12,150.89H333.68V71.33h33.16Z" transform="translate(0 -15.69)"/><path class="cls-3" d="M476.78,173.7q0,28.71-14.58,42.62t-45.06,13.91a122.38,122.38,0,0,1-21.37-1.89,133,133,0,0,1-19.81-5l5.79-27.82a97,97,0,0,0,16.36,4.9,96,96,0,0,0,19.47,1.78q14.25,0,20.14-6.23t5.9-16v-4.23a53,53,0,0,1-11,3.67,58.3,58.3,0,0,1-12.35,1.22q-24.25,0-37.16-14.35t-12.91-40.17a65.81,65.81,0,0,1,4-23.48,50,50,0,0,1,11.69-18.14,52.27,52.27,0,0,1,18.8-11.69,72.22,72.22,0,0,1,25.15-4.11q6,0,12.35.55t12.58,1.45q6.22.9,11.91,2.11t10.12,2.56ZM404,126.08q0,27.83,22.47,27.82a33.14,33.14,0,0,0,9.57-1.34,36.77,36.77,0,0,0,7.57-3.11v-53q-2.44-.45-5.79-.78c-2.22-.22-4.82-.34-7.79-.34q-13.12,0-19.58,8.68T404,126.08Z" transform="translate(0 -15.69)"/><path class="cls-3" d="M481.23,188.39V21l33.16-5.34V71.77A69.66,69.66,0,0,1,523,69.66a53.55,53.55,0,0,1,10.13-1q14.24,0,23.7,3.89a36.82,36.82,0,0,1,15.13,11,42.44,42.44,0,0,1,8,16.91,94,94,0,0,1,2.34,21.81v66.1H549.11V126.3q0-16-4.12-22.7t-15.24-6.68a42.53,42.53,0,0,0-8.35.78q-3.89.78-7,1.67v89Z" transform="translate(0 -15.69)"/><path class="cls-3" d="M584.5,42.17l33.16-5.34v34.5h39.83v27.6H617.66V140.1q0,10.46,3.67,16.69t14.8,6.23a63,63,0,0,0,11-1,56.47,56.47,0,0,0,10.35-2.78l4.68,25.81a92.56,92.56,0,0,1-13.36,4.23,77.55,77.55,0,0,1-18,1.78q-13.59,0-22.48-3.67a35.3,35.3,0,0,1-14.25-10.24,38.08,38.08,0,0,1-7.45-15.91,93.91,93.91,0,0,1-2.11-20.7Z" transform="translate(0 -15.69)"/><path class="cls-3" d="M815.73,111.17q0,19.8-5.9,34.83a71.54,71.54,0,0,1-16.14,25.14,66,66,0,0,1-24.37,15.25A88.58,88.58,0,0,1,739,191.51a86.37,86.37,0,0,1-29.83-5.12,68.45,68.45,0,0,1-24.48-15.25A71.39,71.39,0,0,1,668.17,146q-6-15-6-34.83t6.24-34.83a74,74,0,0,1,16.8-25.26,69,69,0,0,1,24.48-15.36A84.12,84.12,0,0,1,739,30.6a86.35,86.35,0,0,1,29.82,5.12,67.76,67.76,0,0,1,24.48,15.36,72.45,72.45,0,0,1,16.47,25.26Q815.72,91.35,815.73,111.17Zm-117.73,0a69.9,69.9,0,0,0,2.78,20.47,46.49,46.49,0,0,0,8,15.69,35.3,35.3,0,0,0,12.8,10.13,43.81,43.81,0,0,0,34.6,0,35.18,35.18,0,0,0,12.91-10.13,46.49,46.49,0,0,0,8-15.69,69.89,69.89,0,0,0,2.79-20.47,71.07,71.07,0,0,0-2.79-20.59,46.49,46.49,0,0,0-8-15.8,35.28,35.28,0,0,0-12.91-10.13A40.54,40.54,0,0,0,739,61.09a39.21,39.21,0,0,0-17.36,3.67A36.58,36.58,0,0,0,708.79,75a46.59,46.59,0,0,0-8,15.8A70.26,70.26,0,0,0,698,111.17Z" transform="translate(0 -15.69)"/><path class="cls-3" d="M863.13,32.38q34.73,0,53.19,12.35t18.47,38.39q0,16.26-7.45,26.38t-21.48,15.91q4.68,5.79,9.79,13.24t10.13,15.58q5,8.13,9.68,16.91t8.68,17.25H905.33q-4.25-7.56-8.6-15.35t-8.94-15.14q-4.57-7.34-9-13.91t-8.93-11.9H852.67v56.3H818v-152a198.92,198.92,0,0,1,23.48-3.12Q853.57,32.39,863.13,32.38Zm2,29.6c-2.52,0-4.78.08-6.78.22l-5.68.45v41.84h9.79q19.59,0,28-4.9T899,82.9q0-11.36-8.57-16.13T865.13,62Z" transform="translate(0 -15.69)"/><path class="cls-3" d="M989.54,34.16q4,7.35,9.26,18.14t10.93,23.37q5.7,12.57,11.28,25.7t10.48,24.71L1042,101.37q5.58-13.12,11.27-25.7t10.93-23.37q5.25-10.8,9.26-18.14h31.61q2.22,15.36,4.12,34.39t3.33,39.61q1.45,20.6,2.67,41.29t2.12,38.94h-33.83q-.66-22.47-1.78-49T1078.34,86q-4,9.35-8.93,20.7t-9.71,22.7q-4.8,11.34-9.27,21.69t-7.59,17.7h-24.25q-3.14-7.35-7.6-17.7t-9.26-21.69q-4.8-11.35-9.71-22.7T983.09,86q-2.24,26.92-3.34,53.41t-1.78,49H944.14q.89-18.24,2.11-38.94t2.68-41.29q1.44-20.58,3.33-39.61t4.12-34.39Z" transform="translate(0 -15.69)"/></g></g></svg>